<svg width="16" height="13" viewBox="0 0 16 13" fill="none" xmlns="http://www.w3.org/2000/svg">
<g clip-path="url(#clip0_18_32)">
<path d="M14.2 0C13.3 0 12.7 0.5 12.5 1.2H0.6C0.2 1.2 0 1.4 0 1.8C0 2.2 0.2 2.4 0.6 2.4H12.4C12.6 3.1 13.4 3.6 14.1 3.6C15.1 3.6 15.9 2.8 15.9 1.8C16 0.8 15.1 0 14.2 0ZM14.2 2.4C13.8 2.4 13.6 2.2 13.6 1.8C13.6 1.4 13.8 1.2 14.2 1.2C14.6 1.2 14.8 1.4 14.8 1.8C14.8 2.2 14.5 2.4 14.2 2.4Z" fill="#DEDEDE"/>
<path d="M14.2 5.89922H7.3C7 5.19922 6.4 4.69922 5.5 4.69922C4.6 4.69922 4 5.19922 3.8 5.89922H0.6C0.2 5.89922 0 6.09922 0 6.49922C0 6.89922 0.2 7.09922 0.6 7.09922H3.8C4 7.79922 4.8 8.29922 5.5 8.29922C6.2 8.29922 7 7.79922 7.3 7.09922H14.2C14.6 7.09922 14.8 6.89922 14.8 6.49922C14.8 6.09922 14.5 5.89922 14.2 5.89922ZM5.5 7.09922C5.2 7.09922 4.9 6.89922 4.9 6.49922C4.9 6.09922 5.1 5.89922 5.5 5.89922C5.9 5.89922 6.1 6.09922 6.1 6.49922C6.1 6.89922 5.9 7.09922 5.5 7.09922Z" fill="#DEDEDE"/>
<path d="M14.2 10.6004H12.2C12 9.90039 11.3 9.40039 10.5 9.40039C9.6 9.40039 9 9.90039 8.8 10.6004H0.6C0.2 10.6004 0 10.8004 0 11.2004C0 11.6004 0.2 11.8004 0.6 11.8004H8.7C8.9 12.5004 9.7 13.0004 10.4 13.0004C11.1 13.0004 11.9 12.5004 12.1 11.8004H14.1C14.5 11.8004 14.7 11.6004 14.7 11.2004C14.8 10.9004 14.5 10.6004 14.2 10.6004ZM10.5 11.8004C10.1 11.8004 9.9 11.6004 9.9 11.2004C9.9 10.8004 10.1 10.6004 10.5 10.6004C10.9 10.6004 11.1 10.8004 11.1 11.2004C11.1 11.6004 10.8 11.8004 10.5 11.8004Z" fill="#DEDEDE"/>
</g>
<defs>
<clipPath id="clip0_18_32">
<rect width="16" height="13" fill="white"/>
</clipPath>
</defs>
</svg>
